<svg xmlns="http://www.w3.org/2000/svg" width="260" height="260" viewBox="0 0 260 260">
  <defs>
    <linearGradient id="g" x1="0" y1="0" x2="1" y2="1">
      <stop offset="0" stop-color="#0a84ff"/>
      <stop offset="0.45" stop-color="#34c759"/>
      <stop offset="1" stop-color="#FFBF00"/>
    </linearGradient>
    <filter id="s" x="-30%" y="-30%" width="160%" height="160%">
      <feDropShadow dx="0" dy="14" stdDeviation="12" flood-color="#000" flood-opacity="0.18"/>
    </filter>
  </defs>
  <g filter="url(#s)">
    <circle cx="130" cy="56" r="28" fill="url(#g)" stroke="#0d0d0d" stroke-width="8"/>
    <path d="M130 88c-34 0-56 24-56 58 0 34 24 60 56 60s56-26 56-60c0-34-22-58-56-58z" fill="url(#g)" fill-opacity="0.85" stroke="#0d0d0d" stroke-width="8" stroke-linejoin="round"/>
    <path d="M72 122c-18 10-28 26-30 48" fill="none" stroke="#0d0d0d" stroke-width="10" stroke-linecap="round"/>
    <path d="M188 122c18 10 28 26 30 48" fill="none" stroke="#0d0d0d" stroke-width="10" stroke-linecap="round"/>
    <path d="M108 198c-10 18-12 32-6 44" fill="none" stroke="#0d0d0d" stroke-width="10" stroke-linecap="round"/>
    <path d="M152 198c10 18 12 32 6 44" fill="none" stroke="#0d0d0d" stroke-width="10" stroke-linecap="round"/>
    <path d="M105 140c12 10 24 14 50 6" fill="none" stroke="#0d0d0d" stroke-width="10" stroke-linecap="round"/>
    <path d="M160 136c-6 10-12 18-22 26" fill="none" stroke="#0d0d0d" stroke-width="10" stroke-linecap="round"/>
    <circle cx="118" cy="52" r="6" fill="#0d0d0d" opacity="0.7"/>
    <circle cx="142" cy="52" r="6" fill="#0d0d0d" opacity="0.7"/>
  </g>
</svg>
