<svg xmlns="http://www.w3.org/2000/svg" viewBox="0 0 24 24" width="24" height="24" fill="none">
  <path d="M12 2a10 10 0 0 0-8.6 15.1L2 22l5-1.3A10 10 0 1 0 12 2z" stroke="white" stroke-opacity="0.9" stroke-width="1.6"/>
  <path d="M9.1 8.8c.2-.6.4-.6.7-.6h.6c.2 0 .4 0 .5.3.2.4.7 1.5.8 1.6.1.2.1.4 0 .6l-.3.4c-.1.2-.3.4-.1.7.2.3.7 1.2 1.5 1.9.9.8 1.7 1.1 2 .8l.5-.6c.2-.3.4-.2.7-.1.3.1 1.7.8 1.9.9.2.1.4.2.4.4 0 .2 0 1.1-.5 1.6-.5.5-1.1.6-1.5.5-.4-.1-1.9-.6-3.7-2.1-1.8-1.6-2.9-3.6-3.2-4.2-.3-.6 0-1 .2-1.2l.3-.3c.1-.1.2-.2.3-.5.1-.2.1-.4 0-.6-.1-.2-.6-1.5-.8-2-.2-.5-.4-.4-.6-.4h-.5" stroke="white" stroke-opacity="0.9" stroke-width="1.4" stroke-linecap="round" stroke-linejoin="round"/>
</svg>

