<svg xmlns="http://www.w3.org/2000/svg" width="520" height="360" viewBox="0 0 520 360" fill="none">
  <defs>
    <filter id="s" x="-20%" y="-20%" width="140%" height="140%">
      <feDropShadow dx="0" dy="18" stdDeviation="18" flood-color="#000" flood-opacity="0.18"/>
    </filter>
  </defs>
  <g filter="url(#s)">
    <path d="M260 44c20 0 32 14 32 32 0 10-4 18-10 24h18c24 0 44 20 44 44v68c0 48-38 86-84 86h-0c-46 0-84-38-84-86v-68c0-24 20-44 44-44h18c-6-6-10-14-10-24 0-18 12-32 32-32z" stroke="#0d0d0d" stroke-width="10" stroke-linejoin="round"/>
    <path d="M260 60c10 0 16 7 16 16 0 10-6 16-16 16s-16-6-16-16c0-9 6-16 16-16z" fill="#0d0d0d" fill-opacity="0.12"/>
    <path d="M182 144c0-18 14-32 32-32h92c18 0 32 14 32 32v68c0 42-34 76-76 76s-76-34-76-76v-68z" fill="#0d0d0d" fill-opacity="0.06"/>
    <path d="M138 164c8-18 24-30 44-34M382 164c-8-18-24-30-44-34" stroke="#0d0d0d" stroke-width="10" stroke-linecap="round"/>
    <path d="M170 270c-18 10-30 22-40 40M350 270c18 10 30 22 40 40" stroke="#0d0d0d" stroke-width="10" stroke-linecap="round"/>
    <path d="M216 176h88M216 206h88" stroke="#0d0d0d" stroke-width="10" stroke-linecap="round" opacity="0.25"/>
    <path d="M260 118c-22 0-40-18-40-40 0-22 18-40 40-40s40 18 40 40c0 22-18 40-40 40z" fill="none" stroke="#0d0d0d" stroke-width="10" opacity="0.35"/>
    <path d="M260 34l10 14-10 14-10-14 10-14z" fill="#0d0d0d" fill-opacity="0.22"/>
    <path d="M92 186c22-10 40-10 62 0M428 186c-22-10-40-10-62 0" stroke="#0d0d0d" stroke-width="8" stroke-linecap="round" opacity="0.22"/>
  </g>
</svg>

