<svg xmlns="http://www.w3.org/2000/svg" viewBox="0 0 24 24" width="24" height="24" fill="none">
  <path d="M4.3 7.1h2.5c.3 0 .6.2.7.5.7 2 2.6 5.9 4.1 5.9.5 0 .8-.4.8-1.4V8.1c0-.6.4-1 .9-1h2.7c.5 0 .9.4.9 1v2.4c0 .5-.2 1 .4 1.3.7.3 2.4-2.1 3.1-3.9.1-.3.4-.5.7-.5h2.4c.6 0 1 .6.8 1.2-.4 1.1-1.4 3.2-3 5 .0 0 2.8 2.6 3.4 4.4.2.6-.2 1.2-.8 1.2h-2.8c-.3 0-.6-.1-.8-.4-.8-1.1-2.3-3-2.9-2.7-.5.2-.6 1-.6 1.7v.6c0 .5-.4.9-.9.9h-1.1c-5.4 0-9-4.1-10.9-11.1-.2-.6.3-1.2.9-1.2z" stroke="white" stroke-opacity="0.9" stroke-width="1.3" stroke-linejoin="round"/>
</svg>

